<?xml version="1.0" standalone="no"?>
<!DOCTYPE svg PUBLIC "-//W3C//DTD SVG 20010904//EN"
 "http://www.w3.org/TR/2001/REC-SVG-20010904/DTD/svg10.dtd">
<svg version="1.0" xmlns="http://www.w3.org/2000/svg"
 width="299.000000pt" height="299.000000pt" viewBox="0 0 299.000000 299.000000"
 preserveAspectRatio="xMidYMid meet">
<metadata>
Created by potrace 1.14, written by Peter Selinger 2001-2017
</metadata>
<g transform="translate(0.000000,299.000000) scale(0.100000,-0.100000)"
fill="#000000" stroke="none">
<path d="M989 2477 c-13 -7 -31 -27 -39 -44 -16 -35 -53 -53 -115 -56 -19 -1
-35 -5 -35 -9 0 -5 -8 -8 -18 -8 -37 0 -249 -86 -272 -110 -3 -3 -18 -14 -35
-24 -129 -83 -247 -259 -289 -431 -10 -38 -21 -85 -26 -103 -9 -37 -7 -338 4
-392 4 -19 14 -71 22 -115 22 -112 38 -147 66 -144 13 2 53 -1 91 -5 37 -4 93
-9 125 -11 31 -2 108 -7 171 -11 l114 -7 79 -73 c179 -167 288 -246 458 -329
57 -28 175 -72 175 -66 0 1 13 -3 29 -9 41 -15 116 -23 226 -22 52 0 95 1 95
2 0 1 14 4 30 6 189 30 423 144 628 306 55 43 59 44 78 21 8 -9 34 -25 58 -36
78 -34 170 -19 216 34 63 75 4 165 -140 212 -93 31 -510 267 -525 297 -8 15
-72 334 -76 375 -1 11 -4 27 -7 35 -3 8 -20 62 -37 120 -18 58 -35 110 -40
115 -4 6 -12 25 -18 43 -32 94 -138 211 -243 269 -113 61 -276 93 -500 97
-101 2 -113 4 -119 21 -19 49 -84 75 -131 52z m79 -65 c2 -8 -11 -12 -37 -12
-45 0 -50 6 -24 25 19 14 54 6 61 -13z m1683 -1498 c20 -18 20 -32 1 -53 -11
-11 -18 -9 -43 17 -18 19 -28 36 -23 43 4 8 3 9 -4 5 -7 -4 -12 -2 -12 5 0 16
58 4 81 -17z"/>
</g>
</svg>
